<svg width="28" height="28" viewBox="0 0 28 28" fill="none" xmlns="http://www.w3.org/2000/svg">
<path d="M13.625 0.4375L12.375 1.625C12.0625 1.9375 12.0625 2.4375 12.375 2.6875L22.0625 12.375H0.75C0.3125 12.375 0 12.75 0 13.125V14.875C0 15.3125 0.3125 15.625 0.75 15.625H22.0625L12.375 25.375C12.0625 25.625 12.0625 26.125 12.375 26.4375L13.625 27.625C13.875 27.9375 14.375 27.9375 14.6875 27.625L27.75 14.5625C28.0625 14.25 28.0625 13.8125 27.75 13.5L14.6875 0.4375C14.375 0.125 13.875 0.125 13.625 0.4375Z" fill="#AFAFAF"/>
</svg>
