<?xml version="1.0" encoding="UTF-8" ?>
<svg width="42" height="42" viewBox="0 0 42 42" fill="none" xmlns="http://www.w3.org/2000/svg">
<path d="M20.25 0.46875L19.5938 1.125C19.125 1.59375 19.125 2.25 19.5938 2.71875L36.2812 19.4062H1.125C0.46875 19.4062 0 19.9688 0 20.5312V21.4688C0 22.125 0.46875 22.5938 1.125 22.5938H36.2812L19.5938 39.375C19.125 39.8438 19.125 40.5 19.5938 40.9688L20.25 41.625C20.7188 42.0938 21.375 42.0938 21.8438 41.625L41.625 21.8438C42.0938 21.375 42.0938 20.7188 41.625 20.25L21.8438 0.46875C21.375 0 20.7188 0 20.25 0.46875Z" fill="#afafaf"/>
</svg>
