<?xml version="1.0" encoding="UTF-8" ?>
<svg width="60" height="40" viewBox="0 0 60 40" fill="none" xmlns="http://www.w3.org/2000/svg">
<path d="M58.9938 0.0266675C58.3517 -0.114893 57.6608 0.326897 57.5241 1.00681L55.8053 9.59979C55.0774 9.22585 54.502 8.62786 53.8424 7.90822C52.6559 6.6132 51.1789 5.0019 48.3372 5.0019C45.4954 5.0019 44.0209 6.61308 42.8344 7.90822C41.765 9.07762 40.9179 10.0016 39.1796 10.0016C37.4389 10.0016 36.5941 9.07762 35.5224 7.90822C34.3359 6.6132 32.8589 5.0019 30.0172 5.0019C27.1779 5.0019 25.7009 6.61308 24.5167 7.90693C23.4425 9.0775 22.5954 10.0015 20.8547 10.0015C19.1115 10.0015 18.2619 9.0775 17.1877 7.90693C16.0012 6.61308 14.5217 5.0019 11.6775 5.0019C8.83331 5.0019 7.3563 6.61191 6.1698 7.90693C5.50676 8.62868 4.92857 9.22902 4.19534 9.60296L2.47611 1.00681C2.33935 0.326897 1.64843 -0.116182 1.00637 0.0266675C0.327628 0.162134 -0.111818 0.820013 0.0249377 1.49746L6.92178 35.9797C7.38806 38.3086 9.451 39.9992 11.824 39.9992H48.1759C50.5489 39.9992 52.6119 38.3086 53.0781 35.9797L59.975 1.49746C60.112 0.820131 59.6725 0.162134 58.9938 0.0266675ZM50.6272 35.4891C50.3928 36.6536 49.3625 37.4995 48.176 37.4995H11.8241C10.6376 37.4995 9.60732 36.6536 9.37295 35.4891L4.69549 12.1028C6.17039 11.5582 7.14678 10.5381 8.01067 9.59628C9.08491 8.42571 9.93451 7.5017 11.6776 7.5017C13.4232 7.5017 14.2728 8.42688 15.3471 9.59745C16.5336 10.8913 18.013 12.5013 20.8548 12.5013C23.6965 12.5013 25.1736 10.8901 26.3601 9.59499C27.4318 8.42559 28.2765 7.50159 30.0172 7.50159C31.7579 7.50159 32.605 8.4256 33.6792 9.59616C34.8633 10.89 36.3403 12.5012 39.1797 12.5012C42.019 12.5012 43.4937 10.89 44.6802 9.59616C45.7519 8.4256 46.5966 7.50159 48.3373 7.50159C50.078 7.50159 50.9251 8.4256 51.9993 9.59616C52.8605 10.538 53.8349 11.5574 55.3049 12.1019L50.6272 35.4891Z" fill="#AFAFAF"/>
</svg>
