<svg width="415" height="145" viewBox="0 0 415 145" fill="none" xmlns="http://www.w3.org/2000/svg">
<g clip-path="url(#clip0)">
<path d="M0 89.2569H8.64994L28.4219 134.132L46.6494 89.2569H55.5318L55.2993 145H48.8107V102.356L31.2024 145H25.6414L6.79706 102.356V145H0V89.2569Z" fill="#292929"/>
<path d="M80.1674 89.2569C92.4211 89.2569 98.5491 93.9016 98.5491 103.193V145H92.3713V126.604H67.9659V145H61.7881V103.472C61.7857 93.9943 67.9137 89.2569 80.1674 89.2569ZM67.6575 121.032H92.3713V104.03C92.3713 97.7139 88.2503 94.5532 80.0132 94.5532C71.7737 94.5532 67.6551 97.6187 67.6551 103.75V121.032H67.6575Z" fill="#292929"/>
<path d="M104.729 145V89.2569H123.111C129.701 89.2569 134.451 90.5459 137.36 93.1239C140.268 95.7019 141.723 99.9637 141.723 105.912C141.723 110.882 139.175 114.716 134.076 117.408C139.175 119.917 141.723 123.401 141.723 127.86C141.723 129.765 141.685 132.621 141.606 136.431C141.528 140.241 141.49 143.097 141.49 145.002H135.31V129.951C135.31 123.261 131.398 119.917 123.571 119.917H110.596V145H104.729ZM135.312 104.028C135.312 97.7115 131.191 94.5508 122.954 94.5508H110.596V114.34H123.879C131.502 114.342 135.312 110.903 135.312 104.028Z" fill="#292929"/>
<path d="M165.296 108.257L186.598 145.002H179.492L160.449 112.292L153.851 118.245V145H147.981V89.2569H154.005L153.851 110.996L177.948 89.2569H186.289L165.296 108.257Z" fill="#292929"/>
<path d="M223.746 119.917H198.721V139.428H229.615V145.002H192.852V89.2569H229.615V94.5532H198.721V114.342H223.746V119.917Z" fill="#292929"/>
<path d="M251.624 145V94.5532H235.869V89.2569H272.632V94.5532H257.802V145H251.624Z" fill="#292929"/>
<path d="M278.888 89.2569H284.912L284.758 145H278.888V89.2569Z" fill="#292929"/>
<path d="M316.809 145L297.965 102.356V145H291.168V89.2569H299.818L319.59 134.132V89.2569H326.387V145H316.809Z" fill="#292929"/>
<path d="M363.226 129.392V123.817H350.868V117.964H369.712V130.229C369.712 140.077 363.482 145 351.022 145C338.769 145 332.641 140.17 332.641 130.507V103.75C332.641 94.0895 338.769 89.2569 351.022 89.2569C363.276 89.2569 369.404 93.9943 369.404 103.472V110.161H363.224C363.224 104.401 362.761 100.663 361.834 98.9434C360.237 96.0182 356.581 94.5532 350.866 94.5532C342.626 94.5532 338.508 97.7115 338.508 104.03V129.114C338.508 135.989 342.626 139.425 350.866 139.425C359.105 139.425 363.226 136.082 363.226 129.392Z" fill="#292929"/>
<path d="M30.894 30.7979H5.86943V55.8834H0V0.140305H36.7634V5.4366H5.86943V25.2258H30.894V30.7979Z" fill="#292929"/>
<path d="M61.4012 0C73.6549 0 79.7829 4.64466 79.7829 13.9364V55.7431H73.6051V37.3475H49.1974V55.7431H43.0195V14.2146C43.0195 4.73741 49.1452 0 61.4012 0ZM48.889 31.773H73.6027V14.7711C73.6027 8.45457 69.4818 5.29392 61.2447 5.29392C53.0052 5.29392 48.8866 8.35944 48.8866 14.4905V31.773H48.889Z" fill="#292929"/>
<path d="M116.547 40.1348C116.547 37.4403 113.894 34.9337 108.592 32.6101C101.178 29.3115 96.2859 27.1521 93.9182 26.1295C88.6134 22.9712 85.9634 19.0923 85.9634 14.4929C85.961 4.83254 92.089 0 104.343 0C116.596 0 122.724 4.64466 122.724 13.9364V18.6738H116.547C116.547 13.8888 115.878 10.5902 114.539 8.78038C112.789 6.45686 109.339 5.29629 104.191 5.29629C95.9514 5.29629 91.8328 8.45457 91.8328 14.7735C91.8328 17.7938 94.5089 20.348 99.8659 22.4385C109.391 26.1556 114.333 28.1296 114.694 28.3603C120.048 31.333 122.727 35.5377 122.727 40.972C122.727 50.8202 116.599 55.7431 104.345 55.7431C92.089 55.7431 85.9634 50.9129 85.9634 41.2502V35.3974H91.8328C91.8328 40.6937 92.3974 44.2705 93.5315 46.1279C95.178 48.8225 98.7319 50.1685 104.191 50.1685C112.426 50.1685 116.547 46.8247 116.547 40.1348Z" fill="#292929"/>
<path d="M128.954 0.140305H134.824V25.2258H159.537V0.140305H165.718V55.8834H159.229V30.7979H134.824V55.8834H128.954V0.140305Z" fill="#292929"/>
<path d="M171.974 0.140305H177.997L177.843 55.8834H171.974V0.140305Z" fill="#292929"/>
<path d="M202.635 0.140305C214.889 0.140305 221.017 4.78497 221.017 14.0767V41.1123C221.017 50.9605 214.889 55.8834 202.635 55.8834C190.381 55.8834 184.253 51.0532 184.253 41.3905V14.6332C184.253 4.97047 190.379 0.140305 202.635 0.140305ZM214.837 40.2751V14.9114C214.837 8.59487 210.716 5.43422 202.479 5.43422C194.239 5.43422 190.12 8.59249 190.12 14.9114V39.9969C190.12 46.8723 194.239 50.3088 202.479 50.3088C210.718 50.3088 214.837 46.9651 214.837 40.2751Z" fill="#292929"/>
<path d="M252.682 55.8834L233.835 13.2395V55.8834H227.038V0.140305H235.688L255.46 45.0149V0.140305H262.257V55.8834H252.682Z" fill="#292929"/>
<path d="M354.343 56.0237H347.238L331.791 0.278252H338.557L350.972 44.7866L364.248 0H371.954L354.343 56.0237Z" fill="#292929"/>
<path d="M408.822 40.4155C408.822 37.7209 406.17 35.2143 400.867 32.8908C393.453 29.5922 388.561 27.4328 386.194 26.4101C380.889 23.2519 378.239 19.373 378.239 14.7735C378.239 5.11318 384.364 0.28064 396.62 0.28064C408.874 0.28064 415.002 4.9253 415.002 14.217V18.9544H408.824C408.824 14.1694 408.155 10.8708 406.817 9.06102C405.066 6.7375 401.617 5.57693 396.469 5.57693C388.229 5.57693 384.111 8.73521 384.111 15.0541C384.111 18.0745 386.787 20.6287 392.144 22.7191C401.669 26.4363 406.611 28.4102 406.971 28.6409C412.326 31.6137 415.005 35.8184 415.005 41.2526C415.005 51.1008 408.877 56.0237 396.623 56.0237C384.367 56.0237 378.241 51.1935 378.241 41.5308V35.678H384.111C384.111 40.9743 384.675 44.5512 385.809 46.4086C387.456 49.1031 391.01 50.4492 396.469 50.4492C404.701 50.4492 408.822 47.103 408.822 40.4155Z" fill="#292929"/>
<path d="M406.504 145V138.45H415V145H406.504Z" fill="#292929"/>
</g>
<defs>
<clipPath id="clip0">
<rect width="415" height="145" fill="#292929"/>
</clipPath>
</defs>
</svg>
