<?xml version="1.0" encoding="UTF-8" ?>
<svg width="60" height="40" viewBox="0 0 60 40" fill="none" xmlns="http://www.w3.org/2000/svg">
<path d="M59.989 38.5852L55.4223 4.33957C55.0927 1.86516 52.9625 0 50.4662 0H21.25C20.559 0 19.9999 0.559102 19.9999 1.25004C19.9999 1.94098 20.559 2.50008 21.25 2.50008H50.4663C51.7139 2.50008 52.7796 3.43266 52.9444 4.66922L54.6558 17.5001H21.25C9.5325 17.5 0 27.0324 0 38.7499C0 39.4409 0.559102 40 1.25004 40H58.7501C59.1102 40 59.4532 39.8449 59.6901 39.574C59.9279 39.3017 60.0367 38.9415 59.989 38.5852ZM2.54156 37.4999C3.18727 27.7416 11.3318 19.9999 21.25 19.9999H54.9891L57.3218 37.4999H2.54156Z" fill="#AFAFAF"/>
<path d="M19.9998 31.2499C21.3805 31.2499 22.4998 30.1306 22.4998 28.75C22.4998 27.3693 21.3805 26.25 19.9998 26.25C18.6191 26.25 17.4999 27.3693 17.4999 28.75C17.4999 30.1306 18.6191 31.2499 19.9998 31.2499Z" fill="#AFAFAF"/>
<path d="M30.0001 31.2499C31.3808 31.2499 32.5001 30.1306 32.5001 28.75C32.5001 27.3693 31.3808 26.25 30.0001 26.25C28.6194 26.25 27.5001 27.3693 27.5001 28.75C27.5001 30.1306 28.6194 31.2499 30.0001 31.2499Z" fill="#AFAFAF"/>
<path d="M40 31.2499C41.3806 31.2499 42.4999 30.1306 42.4999 28.75C42.4999 27.3693 41.3806 26.25 40 26.25C38.6193 26.25 37.5 27.3693 37.5 28.75C37.5 30.1306 38.6193 31.2499 40 31.2499Z" fill="#AFAFAF"/>
</svg>
