<?xml version="1.0" encoding="UTF-8" ?>
<svg width="60" height="55" viewBox="0 0 60 55" fill="none" xmlns="http://www.w3.org/2000/svg">
<path d="M59.4916 50.2446L53.7936 46.0331L42.0953 22.6128L59.4916 9.7546C60.0483 9.34445 60.1655 8.56201 59.7553 8.00655C59.3402 7.45109 58.5591 7.33765 58.0073 7.74534L40.9622 20.3441L31.1181 0.636053C30.6933 -0.212018 29.3067 -0.212018 28.8819 0.636053L19.0378 20.3439L1.99275 7.74534C1.44338 7.33765 0.659762 7.4512 0.244692 8.00655C-0.165457 8.56201 -0.048272 9.34445 0.508359 9.7546L17.9046 22.6128L6.20638 46.0331L0.508359 50.2446C-0.048272 50.6548 -0.165457 51.4372 0.244692 51.9927C0.49125 52.3235 0.869641 52.4993 1.25049 52.4993C1.50924 52.4993 1.77056 52.4199 1.99263 52.2539L3.74654 50.9575L2.63223 53.1882C2.43934 53.5755 2.45891 54.0361 2.6859 54.4052C2.91535 54.7741 3.31823 54.9991 3.75029 54.9991H56.2494C56.6815 54.9991 57.0843 54.7742 57.3137 54.4052C57.5409 54.036 57.5603 53.5754 57.3674 53.1882L56.2531 50.9575L58.007 52.2539C58.2292 52.4199 58.4904 52.4993 58.7492 52.4993C59.13 52.4993 59.5084 52.3235 59.755 51.9927C60.1655 51.4372 60.0483 50.6548 59.4916 50.2446ZM49.354 42.7515L32.1014 29.9996L40.0427 24.1299L49.354 42.7515ZM30.0001 4.04545L38.9086 21.8617L30.0001 28.4464L21.0915 21.8617L30.0001 4.04545ZM19.9574 24.13L27.8987 29.9997L10.646 42.7515L19.9574 24.13ZM5.77198 52.4991L8.18224 47.679L30.0001 31.5527L51.8179 47.679L54.2281 52.4991H5.77198Z" fill="#AFAFAF"/>
</svg>
