<?xml version="1.0" encoding="UTF-8" ?>
<svg width="60" height="60" viewBox="0 0 60 60" fill="none" xmlns="http://www.w3.org/2000/svg">
<path d="M57.4998 55.7322V4.2674L59.6336 2.13365C60.1219 1.64533 60.1219 0.854316 59.6336 0.366113C59.1452 -0.122207 58.3542 -0.122207 57.866 0.366113L55.7323 2.49986H4.2674L2.13353 0.365996C1.64521 -0.122324 0.854199 -0.122324 0.365996 0.365996C-0.122207 0.854316 -0.122324 1.64533 0.365996 2.13353L2.49975 4.26729V55.7322L0.365996 57.866C-0.122324 58.3544 -0.122324 59.1454 0.365996 59.6336C0.610098 59.8777 0.930019 59.9998 1.24982 59.9998C1.56963 59.9998 1.88943 59.8777 2.13365 59.6336L4.2674 57.4998H55.7323L57.866 59.6336C58.1101 59.8777 58.4301 59.9998 58.7499 59.9998C59.0697 59.9998 59.3895 59.8777 59.6337 59.6336C60.122 59.1452 60.122 58.3542 59.6337 57.866L57.4998 55.7322ZM29.9998 4.99982H53.2322L46.7434 11.4886C42.3059 7.47096 36.4435 4.99982 29.9998 4.99982C23.5561 4.99982 17.6937 7.47096 13.2562 11.4886L6.76736 4.99982H29.9998ZM28.2322 29.9998L13.2558 44.9761C9.68955 40.9933 7.49978 35.7537 7.49978 29.9998C7.49978 24.2459 9.68955 19.0063 13.2558 15.0235L28.2322 29.9998ZM15.0235 13.2558C19.0063 9.68955 24.2459 7.49978 29.9998 7.49978C35.7537 7.49978 40.9933 9.68955 44.9761 13.2558L29.9998 28.2322L15.0235 13.2558ZM29.9998 31.7673L44.9761 46.7436C40.9933 50.31 35.7537 52.4998 29.9998 52.4998C24.2459 52.4998 19.0063 50.31 15.0235 46.7438L29.9998 31.7673ZM31.7673 29.9998L46.7436 15.0235C50.31 19.0063 52.4998 24.2459 52.4998 29.9998C52.4998 35.7537 50.31 40.9933 46.7438 44.9761L31.7673 29.9998ZM4.99982 29.9998V6.76736L11.4886 13.2562C7.47096 17.6937 4.99982 23.5561 4.99982 29.9998C4.99982 36.4435 7.47096 42.3059 11.4886 46.7434L4.99982 53.2322V29.9998ZM29.9998 54.9997H6.76736L13.2562 48.511C17.6937 52.5286 23.5561 54.9997 29.9998 54.9997C36.4435 54.9997 42.3059 52.5286 46.7434 48.511L53.2322 54.9997H29.9998ZM54.9997 29.9998V53.2322L48.511 46.7434C52.5286 42.3059 54.9997 36.4435 54.9997 29.9998C54.9997 23.5561 52.5286 17.6937 48.511 13.2562L54.9997 6.76736V29.9998Z" fill="#AFAFAF"/>
</svg>
